<svg xmlns="http://www.w3.org/2000/svg" width="1280" height="860" viewBox="0 0 1280 860" fill="none">
  <rect width="1280" height="860" fill="#f3ebff"/>
  <g opacity="0.8" stroke="#d9c7f0" stroke-width="8">
    <path d="M40 130H1240"/>
    <path d="M40 280H1240"/>
    <path d="M40 430H1240"/>
    <path d="M40 580H1240"/>
    <path d="M40 730H1240"/>
    <path d="M120 40V820"/>
    <path d="M340 40V820"/>
    <path d="M560 40V820"/>
    <path d="M780 40V820"/>
    <path d="M1000 40V820"/>
    <path d="M1180 40V820"/>
  </g>
  <path d="M150 640C280 520 360 450 520 420C700 385 820 430 960 350C1080 282 1160 180 1230 110" stroke="#9a78c7" stroke-width="20" stroke-linecap="round"/>
  <circle cx="960" cy="350" r="36" fill="#7f5db0"/>
  <circle cx="960" cy="350" r="16" fill="#f7f0ff"/>
  <rect x="850" y="470" width="320" height="145" rx="20" fill="#fdf9ff" stroke="#d8c5ef"/>
  <text x="885" y="530" fill="#5f477d" font-family="Verdana, sans-serif" font-size="36">Villa Aurelia</text>
  <text x="885" y="575" fill="#79628f" font-family="Verdana, sans-serif" font-size="24">Anteprima posizione</text>
</svg>
